<?xml version="1.0" encoding="UTF-8" standalone="no"?>
<!-- Created with Inkscape (http://www.inkscape.org/) -->

<svg
   width="68.364952mm"
   height="68.364952mm"
   viewBox="0 0 68.364952 68.364952"
   version="1.1"
   id="svg5"
   xmlns="http://www.w3.org/2000/svg"
   xmlns:svg="http://www.w3.org/2000/svg">
  <defs
     id="defs2">
    <clipPath
       clipPathUnits="userSpaceOnUse"
       id="clipPath1713-3-9-0">
      <path
         d="M 0,841.89 H 595.28 V 0 H 0 Z"
         id="path1711-6-3-64" />
    </clipPath>
  </defs>
  <g
     id="layer1"
     transform="translate(-37.399698,-35.389528)">
    <circle
       style="fill:#aa0000;fill-opacity:1;stroke:none;stroke-width:4.96589;stroke-linejoin:round;stroke-miterlimit:4;stroke-dasharray:none;stroke-opacity:1;paint-order:fill markers stroke"
       id="circle1943"
       cy="69.572006"
       cx="71.582176"
       r="34.182476" />
    <circle
       style="fill:#550000;fill-opacity:1;stroke:none;stroke-width:4.73796;stroke-linejoin:round;stroke-miterlimit:4;stroke-dasharray:none;stroke-opacity:1;paint-order:fill markers stroke"
       id="circle1887"
       cy="70.316666"
       cx="72.326851"
       r="32.61375" />
    <circle
       style="fill:#800000;fill-opacity:1;stroke:none;stroke-width:4.29433;stroke-linejoin:round;stroke-miterlimit:4;stroke-dasharray:none;stroke-opacity:1;paint-order:fill markers stroke"
       id="ellipse37001"
       cy="72.174583"
       cx="74.184807"
       r="29.559837" />
    <path
       style="fill:#ffffff;fill-opacity:1;stroke:none;stroke-width:0.696345;stroke-linecap:butt;stroke-linejoin:miter;stroke-miterlimit:4;stroke-dasharray:none;stroke-opacity:1"
       d="m 53.548217,83.295108 h 8.64535 v 4.119544 c 0,1.342911 -1.16176,1.735736 -1.73571,1.735736 h -9.19042 c -0.98438,0 -2.6369,-0.330385 -2.6369,-2.354324 0,-1.06133 0,-4.951842 0,-4.951842 0,-2.057758 1.38528,-2.771898 2.84667,-2.771898 h 8.63181 c 1.21658,0 2.10775,0.796342 2.10775,2.107732 h -9.97801 v 5.948817 h 6.72074 v -1.730544 h -3.15095 c -1.28652,0 -2.27006,-1.323414 -2.26033,-2.103221 z"
       id="path17721-2-1-9-8" />
    <path
       style="fill:#ffffff;fill-opacity:1;stroke:none;stroke-width:0.696345;stroke-linecap:butt;stroke-linejoin:miter;stroke-miterlimit:4;stroke-dasharray:none;stroke-opacity:1"
       d="m 53.548217,71.01237 h 8.64535 v 4.119544 c 0,1.342911 -1.16176,1.735731 -1.73572,1.735731 h -9.19041 c -0.98438,0 -2.6369,-0.33038 -2.6369,-2.354324 0,-1.061325 0,-4.951838 0,-4.951838 0,-2.057757 1.38528,-2.771902 2.84667,-2.771902 h 8.63181 c 1.21658,0 2.10775,0.796347 2.10775,2.107737 h -9.97801 v 5.948813 h 6.72074 v -1.730545 h -3.15095 c -1.28652,0 -2.27006,-1.323409 -2.26033,-2.103216 z"
       id="path17721-2-0-2-0-58" />
    <g
       id="g1709-7-88-2"
       clip-path="url(#clipPath1713-3-9-0)"
       transform="matrix(-1.5647345,0,0,-1.5647345,379.19268,753.55408)"
       style="stroke:none;stroke-opacity:1">
      <g
         id="g1715-5-5-60"
         transform="translate(299,453.666)"
         style="stroke:none;stroke-opacity:1" />
      <g
         id="g1719-3-0-6"
         transform="translate(299,453.666)"
         style="stroke:none;stroke-opacity:1" />
      <g
         id="g1723-5-9-6"
         transform="translate(283.667,447.3384)"
         style="stroke:none;stroke-opacity:1" />
      <g
         id="g1727-6-6-4"
         transform="translate(283.667,447.3384)"
         style="stroke:none;stroke-opacity:1" />
      <g
         id="g1731-2-3-6"
         transform="translate(288.0156,436.25)"
         style="stroke:none;stroke-opacity:1" />
      <g
         id="g1735-9-8-28"
         transform="translate(288.0156,436.25)"
         style="stroke:none;stroke-opacity:1" />
      <g
         id="g1739-1-5-9"
         transform="translate(301.042,429.604)"
         style="stroke:none;stroke-opacity:1" />
      <g
         id="g1743-2-61-60"
         transform="translate(301.042,429.604)"
         style="stroke:none;stroke-opacity:1" />
      <g
         id="g1747-7-1-7"
         transform="translate(305.8545,434)"
         style="stroke:none;stroke-opacity:1" />
      <g
         id="g1751-0-5-0"
         transform="translate(296.5469,412.7656)"
         style="stroke:none;stroke-opacity:1" />
      <g
         id="g1755-9-9-1"
         transform="translate(296.5469,412.7656)"
         style="stroke:none;stroke-opacity:1" />
      <g
         id="g1759-3-8-0"
         transform="translate(332.9375,442.7656)"
         style="stroke:none;stroke-opacity:1" />
      <g
         id="g1763-6-4-1"
         transform="translate(332.9375,442.7656)"
         style="stroke:none;stroke-opacity:1" />
      <g
         id="g1767-0-8-3"
         transform="translate(335.4531,446.1875)"
         style="stroke:none;stroke-opacity:1" />
      <g
         id="g1771-6-1-7"
         transform="translate(335.4531,446.1875)"
         style="stroke:none;stroke-opacity:1" />
      <g
         id="g1775-2-0-7"
         transform="translate(336.7187,450.6719)"
         style="stroke:none;stroke-opacity:1" />
      <g
         id="g1779-6-3-26"
         transform="translate(336.7187,450.6719)"
         style="stroke:none;stroke-opacity:1" />
      <g
         id="g1783-1-0-4"
         transform="translate(337.248,458.4639)"
         style="stroke:none;stroke-opacity:1" />
      <g
         id="g1787-8-4-5"
         transform="translate(337.248,458.4639)"
         style="stroke:none;stroke-opacity:1" />
      <g
         id="g1791-7-4-2"
         transform="translate(329.8545,455.7339)"
         style="stroke:none;stroke-opacity:1">
        <path
           d="m -131.06401,-9.0141523 c 0.56633,-0.7163245 2.13271,-2.9278417 2.13271,-2.9278417 0.20081,0.0299 0.48245,0.04671 0.8659,0.04671 h 5.40914 l 0.99977,0.117828 2.35233,1.293283 c 0,0 -2.21192,1.1338277 -2.41124,1.1761607 -0.19932,0.04198 -1.11725,0.23495 -1.11725,0.23495 z"
           style="fill:#ffffff;fill-opacity:1;fill-rule:nonzero;stroke:none;stroke-width:0.352778;stroke-opacity:1"
           id="path8209-0" />
        <path
           d="m -119.09162,-12.859572 0.41875,-0.766233 0.0938,-0.182034 0.0332,-0.148519 -0.0938,-0.187678 -0.17921,-0.187325 -0.2286,-0.104775 h -0.20955 l -0.32526,0.463197 -0.36936,0.628298 c 0,0 -0.0219,0.242711 0.0773,0.380294 0.0995,0.137936 0.2868,0.220486 0.35842,0.253647 0.0716,0.03316 0.15346,0.07161 0.21167,0.09913 0.0586,0.02752 0.21272,-0.248003 0.21272,-0.248003"
           style="fill:#ffffff;fill-opacity:1;fill-rule:nonzero;stroke:none;stroke-width:0.352778;stroke-opacity:1"
           id="path8211-2" />
        <path
           d="m -118.20417,-11.652402 1.80234,-1.802342 c 0,0 0.23707,-0.192969 -0.14887,-0.595489 -0.38559,-0.402166 -0.248,-0.407811 -1.27318,0.573264 -1.02517,0.981075 -1.22907,1.06927 -0.72213,1.593145 0.28681,0.297391 0.34184,0.231422 0.34184,0.231422"
           style="fill:#ffffff;fill-opacity:1;fill-rule:nonzero;stroke:none;stroke-width:0.352778;stroke-opacity:1"
           id="path8213-9" />
        <path
           d="m -117.75769,-10.070402 2.4638,-0.07726 c 0,0 0.35842,0.07161 0.33091,-0.50165 -0.0275,-0.573264 0.18203,-0.551039 -2.40877,-0.512586 -0.68898,0.0056 -0.87101,-0.0053 -0.84349,0.738716 0.006,0.214842 -0.055,0.369359 0.18732,0.352778 z"
           style="fill:#ffffff;fill-opacity:1;fill-rule:nonzero;stroke:none;stroke-width:0.352778;stroke-opacity:1"
           id="path8215-0" />
        <path
           d="m -117.57097,-7.3215623 -1.29999,-1.264003 c 0,0 -0.41133,-0.323497 0.0882,-0.72778 0.49953,-0.404284 0.36054,-0.455436 1.52153,0.757061 0.8449,0.896761 0.67592,0.896761 0.21272,1.300691 -0.30868,0.264584 -0.52246,-0.06597 -0.52246,-0.06597"
           style="fill:#ffffff;fill-opacity:1;fill-rule:nonzero;stroke:none;stroke-width:0.352778;stroke-opacity:1"
           id="path8217-9" />
        <path
           d="m -120.17923,-8.2846423 0.43356,-0.198261 c 0,0 0.30163,-0.352778 0.54399,0.602544 0.40428,0.771525 0.20602,0.801159 -0.13229,0.984956 -0.33832,0.183444 -0.42616,-0.191206 -0.63924,-0.507295 -0.21343,-0.316088 -0.55139,-0.690738 -0.25012,-0.845255 0.30127,-0.154164 0.0441,-0.03669 0.0441,-0.03669"
           style="fill:#ffffff;fill-opacity:1;fill-rule:nonzero;stroke:none;stroke-width:0.352778;stroke-opacity:1"
           id="path8219-9" />
      </g>
      <g
         id="g1795-8-7-4"
         transform="translate(329.8545,455.7339)"
         style="stroke:none;stroke-opacity:1" />
    </g>
    <g
       id="g2011-5-51"
       clip-path="url(#clipPath1713-3-9-0)"
       transform="matrix(-1.5647345,0,0,-1.5647345,379.19268,753.55408)"
       style="fill:#550000;stroke:none;stroke-opacity:1">
      <g
         id="g1951-9-0"
         transform="translate(299,453.666)"
         style="fill:#550000;stroke:none;stroke-opacity:1" />
      <g
         id="g1953-6-37"
         transform="translate(299,453.666)"
         style="fill:#550000;stroke:none;stroke-opacity:1" />
      <g
         id="g1955-2-8"
         transform="translate(283.667,447.3384)"
         style="fill:#550000;stroke:none;stroke-opacity:1" />
      <g
         id="g1957-1-8"
         transform="translate(283.667,447.3384)"
         style="fill:#550000;stroke:none;stroke-opacity:1" />
      <g
         id="g1959-7-6"
         transform="translate(288.0156,436.25)"
         style="fill:#550000;stroke:none;stroke-opacity:1" />
      <g
         id="g1961-8-0"
         transform="translate(288.0156,436.25)"
         style="fill:#550000;stroke:none;stroke-opacity:1" />
      <g
         id="g1963-5-4"
         transform="translate(301.042,429.604)"
         style="fill:#550000;stroke:none;stroke-opacity:1" />
      <g
         id="g1965-7-6"
         transform="translate(301.042,429.604)"
         style="fill:#550000;stroke:none;stroke-opacity:1" />
      <g
         id="g1967-4-76"
         transform="translate(305.8545,434)"
         style="fill:#550000;stroke:none;stroke-opacity:1" />
      <g
         id="g1969-1-09"
         transform="translate(296.5469,412.7656)"
         style="fill:#550000;stroke:none;stroke-opacity:1" />
      <g
         id="g1971-8-7"
         transform="translate(296.5469,412.7656)"
         style="fill:#550000;stroke:none;stroke-opacity:1" />
      <g
         id="g1973-5-5"
         transform="translate(332.9375,442.7656)"
         style="fill:#550000;stroke:none;stroke-opacity:1" />
      <g
         id="g1975-9-9"
         transform="translate(332.9375,442.7656)"
         style="fill:#550000;stroke:none;stroke-opacity:1" />
      <g
         id="g1977-7-78"
         transform="translate(335.4531,446.1875)"
         style="fill:#550000;stroke:none;stroke-opacity:1" />
      <g
         id="g1979-5-53"
         transform="translate(335.4531,446.1875)"
         style="fill:#550000;stroke:none;stroke-opacity:1" />
      <g
         id="g1981-3-38"
         transform="translate(336.7187,450.6719)"
         style="fill:#550000;stroke:none;stroke-opacity:1" />
      <g
         id="g1983-8-3"
         transform="translate(336.7187,450.6719)"
         style="fill:#550000;stroke:none;stroke-opacity:1" />
      <g
         id="g1985-8-7"
         transform="translate(337.248,458.4639)"
         style="fill:#550000;stroke:none;stroke-opacity:1" />
      <g
         id="g1987-3-93"
         transform="translate(337.248,458.4639)"
         style="fill:#550000;stroke:none;stroke-opacity:1" />
      <g
         id="g2007-1-7"
         transform="translate(329.8545,455.7339)"
         style="fill:#550000;stroke:none;stroke-opacity:1">
        <path
           d="m -131.06401,-9.0141523 c 0,0 -2.55799,3.439936 -7.99641,3.351389 7.66084,-3.310035 6.93,-7.3261757 7.78297,-12.6209417 0.57664,-3.579449 -2.35816,-7.09642 -2.70242,-10.6179 -0.16532,-1.691062 -8.07968,1.54941 -8.62427,2.791828 1.09972,-2.171809 5.81607,-4.753806 7.94821,-4.522521 0.11953,-1.121836 -0.58143,-2.749335 -1.46444,-3.48799 2.17558,0.276578 2.79223,0.723195 3.64525,1.470025 0.85302,0.746831 0.11747,1.646414 0.11747,1.646414 0,0 -0.46002,1.134533 0.81386,1.881364 1.27388,0.746831 2.12619,4.7625 2.12619,4.7625 0,0 1.29893,2.603853 1.1169,3.938058 -0.18204,1.334206 -0.35278,2.588331 -0.35278,2.588331 0,0 0.26423,1.196269 0.58808,2.057752 0.32385,0.861837 -0.11747,1.911703 -0.29386,2.704748 -0.72284,1.491343 -1.50703,2.934972 -2.70475,4.0569437 z"
           style="fill:#550000;fill-opacity:1;fill-rule:nonzero;stroke:none;stroke-width:0.352778;stroke-opacity:1"
           id="path1989-8-8" />
        <path
           d="m -131.06401,-9.0141523 c 0,0 -2.55799,3.439936 -7.99641,3.351389 7.66084,-3.310035 6.93,-7.3261757 7.78297,-12.6209417 0.57664,-3.579449 -2.35816,-7.09642 -2.70242,-10.6179 -0.16532,-1.691062 -8.07968,1.54941 -8.62427,2.791828 1.09972,-2.171809 5.81607,-4.753806 7.94821,-4.522521 0.11953,-1.121836 -0.58143,-2.749335 -1.46444,-3.48799 2.17558,0.276578 2.79223,0.723195 3.64525,1.470025 0.85302,0.746831 0.11747,1.646414 0.11747,1.646414 0,0 -0.46002,1.134533 0.81386,1.881364 1.27388,0.746831 2.12619,4.7625 2.12619,4.7625 0,0 1.29893,2.603853 1.1169,3.938058 -0.18204,1.334206 -0.35278,2.588331 -0.35278,2.588331 0,0 0.26423,1.196269 0.58808,2.057752 0.32385,0.861837 -0.11747,1.911703 -0.29386,2.704748 -0.72284,1.491343 -1.50703,2.934972 -2.70475,4.0569437 z"
           style="fill:#550000;fill-opacity:1;fill-rule:nonzero;stroke:none;stroke-width:0.352778;stroke-opacity:1"
           id="path32790" />
      </g>
      <g
         id="g2009-9-7"
         transform="translate(329.8545,455.7339)"
         style="fill:#550000;stroke:none;stroke-opacity:1" />
    </g>
    <g
       id="g3123-6-41"
       clip-path="url(#clipPath1713-3-9-0)"
       transform="matrix(-1.5647345,0,0,-1.5647345,379.19268,753.55408)"
       style="stroke:none;stroke-opacity:1">
      <g
         id="g3063-4-9"
         transform="translate(299,453.666)"
         style="stroke:none;stroke-opacity:1" />
      <g
         id="g3065-3-0"
         transform="translate(299,453.666)"
         style="stroke:none;stroke-opacity:1" />
      <g
         id="g3067-3-9"
         transform="translate(283.667,447.3384)"
         style="stroke:none;stroke-opacity:1" />
      <g
         id="g3069-3-8"
         transform="translate(283.667,447.3384)"
         style="stroke:none;stroke-opacity:1" />
      <g
         id="g3071-8-8"
         transform="translate(288.0156,436.25)"
         style="stroke:none;stroke-opacity:1" />
      <g
         id="g3073-6-5"
         transform="translate(288.0156,436.25)"
         style="stroke:none;stroke-opacity:1" />
      <g
         id="g3075-0-8"
         transform="translate(301.042,429.604)"
         style="stroke:none;stroke-opacity:1" />
      <g
         id="g3077-4-43"
         transform="translate(301.042,429.604)"
         style="stroke:none;stroke-opacity:1" />
      <g
         id="g3079-8-71"
         transform="translate(305.8545,434)"
         style="stroke:none;stroke-opacity:1" />
      <g
         id="g3081-8-3"
         transform="translate(296.5469,412.7656)"
         style="stroke:none;stroke-opacity:1" />
      <g
         id="g3083-8-8"
         transform="translate(296.5469,412.7656)"
         style="stroke:none;stroke-opacity:1" />
      <g
         id="g3085-9-0"
         transform="translate(332.9375,442.7656)"
         style="stroke:none;stroke-opacity:1" />
      <g
         id="g3087-7-9"
         transform="translate(332.9375,442.7656)"
         style="stroke:none;stroke-opacity:1" />
      <g
         id="g3089-7-7"
         transform="translate(335.4531,446.1875)"
         style="stroke:none;stroke-opacity:1" />
      <g
         id="g3091-6-9"
         transform="translate(335.4531,446.1875)"
         style="stroke:none;stroke-opacity:1" />
      <g
         id="g3093-4-9"
         transform="translate(336.7187,450.6719)"
         style="stroke:none;stroke-opacity:1" />
      <g
         id="g3095-3-3"
         transform="translate(336.7187,450.6719)"
         style="stroke:none;stroke-opacity:1" />
      <g
         id="g3097-0-2"
         transform="translate(337.248,458.4639)"
         style="stroke:none;stroke-opacity:1" />
      <g
         id="g3099-3-43"
         transform="translate(337.248,458.4639)"
         style="stroke:none;stroke-opacity:1" />
      <g
         id="g3119-0-7"
         transform="translate(329.8545,455.7339)"
         style="stroke:none;stroke-opacity:1">
        <path
           d="m -130.34364,-17.502692 c 0.0734,-1.029053 1.16875,-1.190625 1.31551,-1.190625 0.14711,0 0.30868,-0.03669 0.1838,0.881944 -0.0222,0.48507 0.24976,1.293637 0.36018,1.470025 0.11007,0.176389 0.14676,0.389467 -0.16192,0.389467 -0.30833,0 -1.77095,-0.521758 -1.69757,-1.550811"
           style="fill:#ffffff;fill-opacity:1;fill-rule:nonzero;stroke:none;stroke-width:0.352778;stroke-opacity:1"
           id="path3107-9-1" />
      </g>
      <g
         id="g3121-2-2"
         transform="translate(329.8545,455.7339)"
         style="stroke:none;stroke-opacity:1" />
    </g>
    <g
       id="g11535-5-2"
       clip-path="url(#clipPath1713-3-9-0)"
       transform="matrix(-1.5647345,0,0,-1.5647345,379.19268,753.55408)"
       style="stroke:none;stroke-opacity:1">
      <g
         id="g11477-4-0"
         transform="translate(299,453.666)"
         style="stroke:none;stroke-opacity:1" />
      <g
         id="g11479-0-2"
         transform="translate(299,453.666)"
         style="stroke:none;stroke-opacity:1" />
      <g
         id="g11481-5-1"
         transform="translate(283.667,447.3384)"
         style="stroke:none;stroke-opacity:1" />
      <g
         id="g11483-9-75"
         transform="translate(283.667,447.3384)"
         style="stroke:none;stroke-opacity:1" />
      <g
         id="g11485-4-1"
         transform="translate(288.0156,436.25)"
         style="stroke:none;stroke-opacity:1" />
      <g
         id="g11487-6-7"
         transform="translate(288.0156,436.25)"
         style="stroke:none;stroke-opacity:1" />
      <g
         id="g11489-9-4"
         transform="translate(301.042,429.604)"
         style="stroke:none;stroke-opacity:1" />
      <g
         id="g11491-2-1"
         transform="translate(301.042,429.604)"
         style="stroke:none;stroke-opacity:1" />
      <g
         id="g11493-2-7"
         transform="translate(305.8545,434)"
         style="stroke:none;stroke-opacity:1" />
      <g
         id="g11495-4-1"
         transform="translate(296.5469,412.7656)"
         style="stroke:none;stroke-opacity:1" />
      <g
         id="g11497-7-1"
         transform="translate(296.5469,412.7656)"
         style="stroke:none;stroke-opacity:1" />
      <g
         id="g11499-7-1"
         transform="translate(332.9375,442.7656)"
         style="stroke:none;stroke-opacity:1" />
      <g
         id="g11501-5-7"
         transform="translate(332.9375,442.7656)"
         style="stroke:none;stroke-opacity:1" />
      <g
         id="g11503-4-04"
         transform="translate(335.4531,446.1875)"
         style="stroke:none;stroke-opacity:1" />
      <g
         id="g11505-8-0"
         transform="translate(335.4531,446.1875)"
         style="stroke:none;stroke-opacity:1" />
      <g
         id="g11507-1-8"
         transform="translate(336.7187,450.6719)"
         style="stroke:none;stroke-opacity:1" />
      <g
         id="g11509-2-51"
         transform="translate(336.7187,450.6719)"
         style="stroke:none;stroke-opacity:1" />
      <g
         id="g11511-8-66"
         transform="translate(337.248,458.4639)"
         style="stroke:none;stroke-opacity:1" />
      <g
         id="g11513-9-21"
         transform="translate(337.248,458.4639)"
         style="stroke:none;stroke-opacity:1" />
      <g
         id="g11531-3-9"
         transform="translate(329.8545,455.7339)"
         style="stroke:none;stroke-opacity:1">
        <path
           d="m -134.93906,-15.158132 c 0,0 0.6671,0.01658 0.90417,-0.07161 0.23671,-0.08819 0.75494,-0.413455 0.91475,-0.5842 0.15981,-0.171097 0.35842,-0.4191 0.39159,-0.606425 0.0328,-0.187325 0.0441,-0.683683 -0.0773,-0.826911 -0.12136,-0.143228 -0.86008,-0.766233 -0.99237,-0.826911 -0.13229,-0.06068 -0.44097,-0.159808 -0.57326,-0.176389 -0.13229,-0.01658 -0.52917,-0.03845 -0.77717,-0.03281 -0.248,0.0053 -1.14088,0.176389 -1.4605,0.435328 -0.31997,0.258938 -0.69462,0.688974 -0.71684,0.909461 -0.0219,0.220486 -0.1323,0.457552 0.27587,0.959202 0.40781,0.50165 0.82126,0.595136 1.12995,0.69462 0.30868,0.09913 0.98107,0.126647 0.98107,0.126647"
           style="fill:#ffffff;fill-opacity:1;fill-rule:nonzero;stroke:none;stroke-width:0.352778;stroke-opacity:1"
           id="path11519-6-6" />
      </g>
      <g
         id="g11533-8-48"
         transform="translate(329.8545,455.7339)"
         style="stroke:none;stroke-opacity:1" />
    </g>
    <ellipse
       style="fill:#ffffff;stroke:none;stroke-width:3.50913;stroke-linejoin:round;stroke-opacity:1;paint-order:fill markers stroke"
       id="path22477-0-0"
       cx="82.471169"
       cy="57.247829"
       rx="4.8132048"
       ry="4.4581542" />
    <g
       id="g1619-9-2-8"
       transform="matrix(0.73243776,0,0,0.73243776,-20.335173,-0.89903181)">
      <path
         style="fill:#ffffff;fill-opacity:1;stroke:#000000;stroke-width:2.00032;stroke-linecap:round;stroke-linejoin:round;stroke-miterlimit:4;stroke-dasharray:none;stroke-opacity:1"
         d="m 159.06354,117.69517 4.98328,-2.87709 -7.39199,-12.80331 9.42049,-3.6443 -25.74516,-18.964754 3.53231,32.002464 7.73502,-6.25798 z"
         id="path869-7-1-10" />
      <path
         style="fill:none;stroke:#000000;stroke-width:2;stroke-linecap:round;stroke-linejoin:round;stroke-miterlimit:4;stroke-dasharray:none;stroke-opacity:1;paint-order:stroke markers fill"
         d="m 145.94243,78.617057 6.63312,-0.845259"
         id="path1377-36-0-2" />
      <path
         style="fill:none;stroke:#000000;stroke-width:2;stroke-linecap:round;stroke-linejoin:round;stroke-miterlimit:4;stroke-dasharray:none;stroke-opacity:1;paint-order:stroke markers fill"
         d="m 143.86362,74.845586 4.12044,-5.266389"
         id="path1377-3-1-5-2" />
      <path
         style="fill:none;stroke:#000000;stroke-width:2;stroke-linecap:round;stroke-linejoin:round;stroke-miterlimit:4;stroke-dasharray:none;stroke-opacity:1;paint-order:stroke markers fill"
         d="m 139.63446,73.793377 -0.81204,-6.637279"
         id="path1377-3-6-2-1-9" />
      <path
         style="fill:none;stroke:#000000;stroke-width:2;stroke-linecap:round;stroke-linejoin:round;stroke-miterlimit:4;stroke-dasharray:none;stroke-opacity:1;paint-order:stroke markers fill"
         d="m 135.93772,75.99573 -5.2967,-4.081409"
         id="path1377-3-6-7-9-1-7" />
      <path
         style="fill:none;stroke:#000000;stroke-width:2;stroke-linecap:round;stroke-linejoin:round;stroke-miterlimit:4;stroke-dasharray:none;stroke-opacity:1;paint-order:stroke markers fill"
         d="m 134.80065,80.209976 -6.63243,0.85075"
         id="path1377-3-6-7-5-31-0-5" />
      <path
         style="fill:none;stroke:#000000;stroke-width:2;stroke-linecap:round;stroke-linejoin:round;stroke-miterlimit:4;stroke-dasharray:none;stroke-opacity:1;paint-order:stroke markers fill"
         d="m 136.91173,83.814708 -4.05142,5.31967"
         id="path1377-3-6-7-5-3-9-8-6" />
    </g>
    <ellipse
       style="fill:none;fill-opacity:1;stroke:none;stroke-width:4.6423;stroke-linejoin:round;stroke-miterlimit:4;stroke-dasharray:none;stroke-opacity:1;paint-order:fill markers stroke"
       id="ellipse1606"
       cx="71.9338"
       cy="69.859703"
       rx="32.461758"
       ry="31.456017" />
  </g>
</svg>
