<?xml version="1.0" encoding="UTF-8" standalone="no"?>
<!-- Created with Inkscape (http://www.inkscape.org/) -->

<svg
   width="50.59972mm"
   height="37.429928mm"
   viewBox="0 0 50.59972 37.429928"
   version="1.1"
   id="svg18187"
   xmlns="http://www.w3.org/2000/svg"
   xmlns:svg="http://www.w3.org/2000/svg">
  <defs
     id="defs18184" />
  <g
     id="layer1"
     transform="translate(-146.00019,-126.41079)">
    <g
       id="g1">
      <path
         id="path4-8-0-4-4"
         d="m 151.89195,126.4108 c -3.11916,0 -4.50545,1.73287 -4.50545,4.15888 l -1.3863,29.11216 c 0,2.77261 1.73287,4.15888 4.50546,4.15888 h 41.58881 c 2.77258,0 4.50545,-1.38627 4.50545,-4.15888 l -1.38629,-29.11216 c 0,-2.42601 -1.3863,-4.15888 -4.50546,-4.15888 z"
         style="fill:#aa0000;stroke-width:0.693146" />
      <g
         aria-label="G"
         id="text4411-0-2-6-8"
         style="font-weight:bold;font-size:29.2104px;line-height:1.25;font-family:'TeX Gyre Adventor';-inkscape-font-specification:'TeX Gyre Adventor Bold';fill:#ffffff;stroke-width:0.730257">
        <path
           d="m 151.21693,140.64015 c 0,6.30944 5.11182,11.21679 11.74258,11.21679 6.36787,0 11.27522,-4.99498 11.27522,-10.86627 v -0.52579 h -14.10862 v 3.73893 h 8.93838 c -1.16842,2.39526 -3.50525,3.79736 -6.33866,3.79736 -4.23551,0 -7.47786,-3.18394 -7.47786,-7.3026 0,-4.06025 2.97946,-7.33181 7.24418,-7.33181 2.51209,0 4.58603,0.99315 5.92971,2.86261 h 4.70287 c -1.4021,-3.88498 -5.84208,-6.71839 -10.54495,-6.71839 -6.30945,0 -11.36285,4.93656 -11.36285,11.12917 z"
           id="path18314" />
      </g>
      <g
         aria-label="G"
         id="text4411-0-2-5-2-1"
         style="font-weight:bold;font-size:29.2104px;line-height:1.25;font-family:'TeX Gyre Adventor';-inkscape-font-specification:'TeX Gyre Adventor Bold';fill:#ffffff;stroke-width:0.730257">
        <path
           d="m 168.77052,149.89323 c 0,6.30944 5.11182,11.21679 11.74258,11.21679 6.36787,0 11.27522,-4.99498 11.27522,-10.86627 v -0.52579 h -14.10863 v 3.73894 h 8.93839 c -1.16842,2.39525 -3.50525,3.79735 -6.33866,3.79735 -4.23551,0 -7.47786,-3.18394 -7.47786,-7.3026 0,-4.06025 2.97946,-7.33181 7.24418,-7.33181 2.51209,0 4.58603,0.99315 5.92971,2.86262 h 4.70287 c -1.4021,-3.88499 -5.84208,-6.71839 -10.54495,-6.71839 -6.30945,0 -11.36285,4.93655 -11.36285,11.12916 z"
           id="path18311" />
      </g>
    </g>
  </g>
</svg>
